PathFileType	4	(X/Y/Z)	C:/Users/opensim2020/Desktop/walking_exp_matlab/subject06_walking12_straigt_02.trc																																																																																																																																														
DataRate	CameraRate	NumFrames	NumMarkers	Units	OrigDataRate	OrigDataStartFrame	OrigNumFrames																																																																																																																																										
100	100	4	48	mm	100	1574	215																																																																																																																																										
Frame#	Time	LFHD			RFHD			LBHD			RBHD			C7			T10			CLAV			STRN			RBAK			LSHO			LUPA			LELB			LFRM			LWRA			LWRB			LFIN			RSHO			RUPA			RELB			RFRM			RWRA			RWRB			RFIN			LASI			RASI			LPSI			RPSI			LTHI			LKNE			LTIB			LANK			LHEE			LTOE			RTHI			RKNE			RTIB			RANK			RHEE			RTOE			*39			*40			*41			*42			*43			*44			*45			*46			*47		
		X1	Y1	Z1	X2	Y2	Z2	X3	Y3	Z3	X4	Y4	Z4	X5	Y5	Z5	X6	Y6	Z6	X7	Y7	Z7	X8	Y8	Z8	X9	Y9	Z9	X10	Y10	Z10	X11	Y11	Z11	X12	Y12	Z12	X13	Y13	Z13	X14	Y14	Z14	X15	Y15	Z15	X16	Y16	Z16	X17	Y17	Z17	X18	Y18	Z18	X19	Y19	Z19	X20	Y20	Z20	X21	Y21	Z21	X22	Y22	Z22	X23	Y23	Z23	X24	Y24	Z24	X25	Y25	Z25	X26	Y26	Z26	X27	Y27	Z27	X28	Y28	Z28	X29	Y29	Z29	X30	Y30	Z30	X31	Y31	Z31	X32	Y32	Z32	X33	Y33	Z33	X34	Y34	Z34	X35	Y35	Z35	X36	Y36	Z36	X37	Y37	Z37	X38	Y38	Z38	X39	Y39	Z39	X40	Y40	Z40	X41	Y41	Z41	X42	Y42	Z42	X43	Y43	Z43	X44	Y44	Z44	X45	Y45	Z45	X46	Y46	Z46	X47	Y47	Z47	X48	Y48	Z48
																																																																																																																																																	
135	1.34	-1490.46008	1645.13684	-184.26241	-1358.46265	1633.50586	-181.02057	-1492.83191	1595.74255	-47.87416	-1363.46558	1590.15063	-46.90625	-1433.21558	1431.2262	-42.41602	-1417.28687	1100.53894	-18.11387	-1433.40613	1358.16748	-155.39218	-1434.36719	1183.64844	-202.36426	-1347.28381	1258.73608	23.619	-1594.1073	1386.91895	-90.95861	-1656.28943	1198.11035	-25.39491	-1659.05017	1094.97937	21.18877	-1678.88025	949.31842	59.01126	-1637.75671	818.86804	45.74534	-1670.73474	839.19495	105.24456	-1670.56836	748.2124	102.97339	-1272.9054	1391.51501	-107.09463	-1180.81152	1193.15405	-107.21194	-1165.50061	1080.52112	-148.51723	-1149.54932	990.91364	-224.61047	-1183.52673	921.41541	-355.77271	-1146.93652	886.34857	-312.32245	-1142.95483	851.96179	-387.84454	-1519.42078	944.79877	-201.24448	-1301.36987	946.49982	-187.53864	-1504.38892	967.03961	-39.17027	-1335.87183	972.69489	-36.93854	-1589.01733	637.651	-202.11758	-1559.39771	488.45706	-258.30072	-1551.12219	233.48048	-289.9136	-1512.45251	68.95432	-336.92865	-1463.19763	49.17471	-304.05115	-1515.21826	65.88268	-483.8338	-1254.12512	614.90118	-84.5006	-1272.83704	489.39645	-60.02113	-1276.60266	278.58609	114.26488	-1318.43726	130.04225	227.75084	-1362.14441	128.25746	275.29895	-1326.36438	35.60653	109.94562	-1432.36743	1687.03931	-84.23228	NaN	NaN	NaN	NaN	NaN	NaN	NaN	NaN	NaN	NaN	NaN	NaN	NaN	NaN	NaN	NaN	NaN	NaN	NaN	NaN	NaN	NaN	NaN	NaN
136	1.35	-1491.51025	1646.3479	-195.56969	-1359.52185	1634.4585	-192.03725	-1494.50769	1596.42883	-59.59704	-1365.20886	1590.5686	-58.0831	-1435.38025	1431.6925	-53.89876	-1419.29785	1100.55481	-31.15249	-1434.87354	1359.08948	-167.26773	-1435.62329	1184.42017	-214.68643	-1350.20544	1258.45667	11.81181	-1596.11218	1387.21753	-103.58138	-1658.1908	1197.88989	-39.10356	-1660.83081	1094.578	7.23021	-1680.49829	948.76239	44.6155	-1638.9563	818.45734	31.09889	-1672.09631	838.57593	90.64099	-1671.79077	747.70746	88.26037	-1274.35413	1391.84094	-117.98383	-1182.70215	1192.86414	-117.70344	-1167.22925	1080.13806	-158.79153	-1151.07031	989.79633	-234.16734	-1184.28198	919.2182	-364.96292	-1147.87549	884.55194	-320.97101	-1143.6123	849.52917	-396.12778	-1520.43652	945.37592	-215.16287	-1302.49939	946.73486	-201.03003	-1506.08435	968.20966	-53.07375	-1337.53699	972.52881	-50.68478	-1590.94348	638.53009	-215.27675	-1561.59619	489.28323	-269.71432	-1552.995	234.6579	-299.62479	-1513.41626	68.72102	-341.9241	-1464.12231	50.62356	-307.84464	-1516.37061	61.04442	-487.71017	-1255.01917	614.07098	-99.79541	-1273.19141	488.20651	-76.84923	-1277.55737	282.23895	102.38038	-1319.15918	137.8826	220.45181	-1363.11096	138.71077	267.23361	-1326.88867	35.90081	109.0489	-1433.72083	1687.69092	-95.29948	NaN	NaN	NaN	NaN	NaN	NaN	NaN	NaN	NaN	NaN	NaN	NaN	NaN	NaN	NaN	NaN	NaN	NaN	NaN	NaN	NaN	NaN	NaN	NaN
137	1.36	-1492.61938	1647.85168	-206.9156	-1360.60962	1635.74805	-202.94983	-1496.26257	1597.66577	-71.27692	-1366.98254	1591.58032	-69.2423	-1437.46216	1432.93042	-65.63988	-1421.09619	1101.17126	-43.95248	-1436.29272	1360.35474	-178.94215	-1436.89185	1185.77246	-227.0274	-1352.99097	1258.63501	-0.02231	-1598.08472	1387.89612	-116.17519	-1660.14575	1197.86182	-53.23733	-1662.70166	1094.22607	-7.37344	-1682.01709	948.17828	29.33823	-1640.0863	818.05359	15.64936	-1673.67175	837.99847	74.97971	-1672.88928	746.88959	72.3476	-1275.64941	1392.70911	-128.91162	-1184.74207	1193.08142	-128.03412	-1169.08252	1080.18201	-168.93407	-1152.65515	988.89642	-243.22627	-1184.84106	916.98242	-373.53177	-1149.26306	882.5871	-328.4537	-1144.1438	846.78894	-403.5325	-1521.62109	946.77167	-229.05661	-1304.03992	947.30908	-214.06032	-1507.4165	970.26514	-66.74471	-1338.86707	972.84302	-63.84702	-1592.61328	640.70148	-227.75984	-1563.93079	490.80374	-281.11499	-1555.25427	235.8812	-307.85614	-1514.64954	68.49626	-344.31186	-1465.19287	51.94831	-309.99326	-1516.65759	54.72417	-490.07086	-1255.74512	613.55505	-115.3875	-1273.27734	487.26013	-94.88432	-1278.54089	286.31354	88.81619	-1320.32971	146.49347	211.56038	-1364.7572	150.08908	257.20572	-1327.52698	36.50268	108.08291	-1435.12012	1688.96948	-106.44666	NaN	NaN	NaN	NaN	NaN	NaN	NaN	NaN	NaN	NaN	NaN	NaN	NaN	NaN	NaN	NaN	NaN	NaN	NaN	NaN	NaN	NaN	NaN	NaN
138	1.37	-1493.6665	1649.24487	-218.48557	-1361.79956	1637.05945	-214.00513	-1498.07764	1599.09766	-82.97504	-1368.84131	1592.82959	-80.37251	-1439.25134	1434.55859	-77.55421	-1422.70056	1102.28577	-56.53088	-1437.6532	1361.88489	-190.52638	-1438.18616	1187.39209	-239.162	-1355.50037	1259.34106	-11.97003	-1599.80371	1388.91345	-128.97859	-1662.06238	1198.03503	-67.8337	-1664.67676	1094.0531	-22.73355	-1683.62378	947.65875	13.00752	-1641.16748	817.91656	-0.8563	-1675.42737	837.30292	58.15677	-1674.08655	746.16309	55.05399	-1276.98962	1393.95459	-140.07106	-1186.8739	1193.93738	-138.00128	-1171.16333	1080.71313	-178.93279	-1154.43286	988.14624	-251.84859	-1185.7478	914.23071	-381.17838	-1150.2323	880.52722	-335.42645	-1144.58069	843.71637	-409.76624	-1522.79224	948.93811	-242.77878	-1305.48657	948.47919	-227.39539	-1508.21204	972.4472	-80.20512	-1339.8783	973.20605	-77.1671	-1594.38306	643.39709	-240.10936	-1565.96741	492.40689	-292.40054	-1557.45471	236.38585	-313.7392	-1515.36914	68.37192	-346.09207	-1466.41541	52.95358	-311.11691	-1515.70923	49.78693	-492.20657	-1256.43188	613.25055	-132.41887	-1272.98743	486.42953	-114.17187	-1279.48328	290.875	73.90099	-1321.62964	155.51289	200.92532	-1367.00891	161.65352	244.9489	-1327.63489	37.29371	107.27559	-1436.6178	1690.34314	-117.80952	NaN	NaN	NaN	NaN	NaN	NaN	NaN	NaN	NaN	NaN	NaN	NaN	NaN	NaN	NaN	NaN	NaN	NaN	NaN	NaN	NaN	NaN	NaN	NaN
